<svg xmlns="http://www.w3.org/2000/svg" xmlns:xlink="http://www.w3.org/1999/xlink" xmlns:lucid="lucid" width="1700" height="560"><g transform="translate(-40 -160)" lucid:page-tab-id="0_0"><path d="M0 0h1870.87v1322.83H0z" fill="#fff"/><path d="M60 446a6 6 0 0 1 6-6h288a6 6 0 0 1 6 6v228a6 6 0 0 1-6 6H66a6 6 0 0 1-6-6z" stroke="#5e5e5e" stroke-width="3" fill="#fff"/><path d="M120 544.97a6 6 0 0 1 6-6h168a6 6 0 0 1 6 6v16.94a6 6 0 0 1-6 6H126a6 6 0 0 1-6-6z" stroke="#000" stroke-opacity="0" stroke-width="3" fill="#fff" fill-opacity="0"/><use xlink:href="#a" transform="matrix(1,0,0,1,124.99999999999999,543.9708198239925) translate(8.583333333333428 47.99999999999994)"/><path d="M800 446a6 6 0 0 1 6-6h268a6 6 0 0 1 6 6v228a6 6 0 0 1-6 6H806a6 6 0 0 1-6-6z" stroke="#5e5e5e" stroke-width="3" fill="#fff"/><path d="M856 544.97a6 6 0 0 1 6-6h156a6 6 0 0 1 6 6v16.94a6 6 0 0 1-6 6H862a6 6 0 0 1-6-6z" stroke="#000" stroke-opacity="0" stroke-width="3" fill="#fff" fill-opacity="0"/><use xlink:href="#b" transform="matrix(1,0,0,1,861,543.9708198239925) translate(-9.166666666666558 47.99999999999994)"/><path d="M1720 656c0 13.25-53.73 24-120 24-66.27 0-120-10.75-120-24V464c0-13.25 53.73-24 120-24 66.27 0 120 10.75 120 24z" stroke="#5e5e5e" stroke-width="3" fill="#fff"/><path d="M1720 464c0 13.25-53.73 24-120 24-66.27 0-120-10.75-120-24" stroke="#5e5e5e" stroke-width="3" fill="none"/><use xlink:href="#c" transform="matrix(1,0,0,1,1485,493) translate(20.0000000000002 98.11805555555549)"/><path d="M474.2 509.98H362.44v-2H474.2m305.82 2h-94.24v-2h94.24" fill="#5e5e5e"/><path d="M362.47 509.98h-1.02v-2h1.02M795.28 508.98l-14.26 4.63v-9.26z" fill="#5e5e5e"/><path d="M798.52 508.98l-18.5 6v-12m2 9.26l10.03-3.26-10.03-3.26" fill="#5e5e5e"/><use xlink:href="#d" transform="matrix(1,0,0,1,474.1872406652534,492.9775945606179) translate(0 21.333333333333332)"/><use xlink:href="#e" transform="matrix(1,0,0,1,474.1872406652534,492.9775945606179) translate(79.92592592592592 21.333333333333332)"/><path d="M1239.32 499.56h-156.88v-2h156.88m220.68 2h-139.38v-2H1460" fill="#5e5e5e"/><path d="M1082.47 499.56h-1.03v-2h1.03M1475.26 498.56L1461 503.2v-9.28z" fill="#5e5e5e"/><path d="M1478.5 498.56l-18.5 6v-12m2 9.26l10.03-3.26-10.03-3.26" fill="#5e5e5e"/><use xlink:href="#f" transform="matrix(1,0,0,1,1239.3235477963,485.2260280136605) translate(0 17.77777777777778)"/><path d="M1200 186a6 6 0 0 1 6-6h188a6 6 0 0 1 6 6v139a6 6 0 0 1-6 6h-188a6 6 0 0 1-6-6z" fill="#fff"/><path d="M1200 186a6 6 0 0 1 6-6h188a6 6 0 0 1 6 6v139a6 6 0 0 1-6 6h-188a6 6 0 0 1-6-6zM1200 220h200" stroke="#5e5e5e" stroke-width="3" fill="none"/><use xlink:href="#g" transform="matrix(1,0,0,1,1210,180) translate(66.60493827160494 24.444444444444443)"/><use xlink:href="#h" transform="matrix(1,0,0,1,1205,222.5) translate(0 20.444444444444443)"/><use xlink:href="#i" transform="matrix(1,0,0,1,1205,259.5) translate(0 20.444444444444443)"/><use xlink:href="#j" transform="matrix(1,0,0,1,1205,296.5) translate(0 20.444444444444443)"/><path d="M1301 485.23h-2V333.46h2" fill="#5e5e5e"/><path d="M1301 333.5h-2v-1.04h2" fill="#5e5e5e"/><path fill="#5e5e5e"/><path d="M1252.3 624.6H1100v-2h152.3m225.2 2h-169.82v-2h169.82" fill="#5e5e5e"/><path d="M1478.5 624.6h-1.03v-2h1.03M1099 628.25l-14.28-4.64L1099 619z" fill="#5e5e5e"/><path d="M1100 629.62l-18.52-6 18.5-6.02m-12.02 6l10.03 3.27v-6.52" fill="#5e5e5e"/><use xlink:href="#k" transform="matrix(1,0,0,1,1252.3066854243602,610.2770561463939) translate(0 17.77777777777778)"/><path d="M534.13 626.7H380v-2h154.13m263.43 2H625.9v-2h171.66" fill="#5e5e5e"/><path d="M798.56 626.7h-1.03v-2h1.03M379 630.33l-14.28-4.64 14.27-4.64z" fill="#5e5e5e"/><path d="M380 631.7l-18.5-6 18.5-6.02m-12.04 6l10.03 3.27v-6.52" fill="#5e5e5e"/><use xlink:href="#l" transform="matrix(1,0,0,1,534.1323078746495,609.6932112820537) translate(0 21.333333333333332)"/><use xlink:href="#m" transform="matrix(1,0,0,1,534.1323078746495,609.6932112820537) translate(51.85185185185185 21.333333333333332)"/><path d="M580 460c0 11.05-8.95 20-20 20s-20-8.95-20-20 8.95-20 20-20 20 8.95 20 20z" stroke="#5e5e5e" stroke-width="3" fill="#fff"/><use xlink:href="#n" transform="matrix(1,0,0,1,545,445) translate(6.358024691358031 24.88888888888887)"/><path d="M1240 460c0 11.05-8.95 20-20 20s-20-8.95-20-20 8.95-20 20-20 20 8.95 20 20z" stroke="#5e5e5e" stroke-width="3" fill="#fff"/><use xlink:href="#o" transform="matrix(1,0,0,1,1205,445) translate(6.358024691358031 24.88888888888887)"/><path d="M1240 661.42c0 11.04-8.95 20-20 20s-20-8.96-20-20c0-11.05 8.95-20 20-20s20 8.95 20 20z" stroke="#5e5e5e" stroke-width="3" fill="#fff"/><use xlink:href="#p" transform="matrix(1,0,0,1,1205,646.4173228346456) translate(6.358024691358031 24.88888888888887)"/><path d="M580 680c0 11.05-8.95 20-20 20s-20-8.95-20-20 8.95-20 20-20 20 8.95 20 20z" stroke="#5e5e5e" stroke-width="3" fill="#fff"/><g><use xlink:href="#q" transform="matrix(1,0,0,1,545,665) translate(6.358024691358031 24.88888888888887)"/></g><defs><path fill="#333" d="M212-179c-10-28-35-45-73-45-59 0-87 40-87 99 0 60 29 101 89 101 43 0 62-24 78-52l27 14C228-24 195 4 139 4 59 4 22-46 18-125c-6-104 99-153 187-111 19 9 31 26 39 46" id="r"/><path fill="#333" d="M24 0v-261h32V0H24" id="s"/><path fill="#333" d="M24-231v-30h32v30H24zM24 0v-190h32V0H24" id="t"/><path fill="#333" d="M100-194c63 0 86 42 84 106H49c0 40 14 67 53 68 26 1 43-12 49-29l28 8c-11 28-37 45-77 45C44 4 14-33 15-96c1-61 26-98 85-98zm52 81c6-60-76-77-97-28-3 7-6 17-6 28h103" id="u"/><path fill="#333" d="M117-194c89-4 53 116 60 194h-32v-121c0-31-8-49-39-48C34-167 62-67 57 0H25l-1-190h30c1 10-1 24 2 32 11-22 29-35 61-36" id="v"/><path fill="#333" d="M59-47c-2 24 18 29 38 22v24C64 9 27 4 27-40v-127H5v-23h24l9-43h21v43h35v23H59v120" id="w"/><g id="a"><use transform="matrix(0.16666666666666646,0,0,0.16666666666666646,0,0)" xlink:href="#r"/><use transform="matrix(0.16666666666666646,0,0,0.16666666666666646,43.166666666666615,0)" xlink:href="#s"/><use transform="matrix(0.16666666666666646,0,0,0.16666666666666646,56.333333333333265,0)" xlink:href="#t"/><use transform="matrix(0.16666666666666646,0,0,0.16666666666666646,69.49999999999991,0)" xlink:href="#u"/><use transform="matrix(0.16666666666666646,0,0,0.16666666666666646,102.8333333333332,0)" xlink:href="#v"/><use transform="matrix(0.16666666666666646,0,0,0.16666666666666646,136.1666666666665,0)" xlink:href="#w"/></g><path fill="#333" d="M185-189c-5-48-123-54-124 2 14 75 158 14 163 119 3 78-121 87-175 55-17-10-28-26-33-46l33-7c5 56 141 63 141-1 0-78-155-14-162-118-5-82 145-84 179-34 5 7 8 16 11 25" id="x"/><path fill="#333" d="M114-163C36-179 61-72 57 0H25l-1-190h30c1 12-1 29 2 39 6-27 23-49 58-41v29" id="y"/><path fill="#333" d="M108 0H70L1-190h34L89-25l56-165h34" id="z"/><g id="b"><use transform="matrix(0.16666666666666646,0,0,0.16666666666666646,0,0)" xlink:href="#x"/><use transform="matrix(0.16666666666666646,0,0,0.16666666666666646,39.99999999999995,0)" xlink:href="#u"/><use transform="matrix(0.16666666666666646,0,0,0.16666666666666646,73.33333333333324,0)" xlink:href="#y"/><use transform="matrix(0.16666666666666646,0,0,0.16666666666666646,93.16666666666656,0)" xlink:href="#z"/><use transform="matrix(0.16666666666666646,0,0,0.16666666666666646,123.16666666666652,0)" xlink:href="#u"/><use transform="matrix(0.16666666666666646,0,0,0.16666666666666646,156.4999999999998,0)" xlink:href="#y"/></g><path fill="#333" d="M30-248c118-7 216 8 213 122C240-48 200 0 122 0H30v-248zM63-27c89 8 146-16 146-99s-60-101-146-95v194" id="A"/><path fill="#333" d="M141-36C126-15 110 5 73 4 37 3 15-17 15-53c-1-64 63-63 125-63 3-35-9-54-41-54-24 1-41 7-42 31l-33-3c5-37 33-52 76-52 45 0 72 20 72 64v82c-1 20 7 32 28 27v20c-31 9-61-2-59-35zM48-53c0 20 12 33 32 33 41-3 63-29 60-74-43 2-92-5-92 41" id="B"/><path fill="#333" d="M115-194c53 0 69 39 70 98 0 66-23 100-70 100C84 3 66-7 56-30L54 0H23l1-261h32v101c10-23 28-34 59-34zm-8 174c40 0 45-34 45-75 0-40-5-75-45-74-42 0-51 32-51 76 0 43 10 73 51 73" id="C"/><path fill="#333" d="M135-143c-3-34-86-38-87 0 15 53 115 12 119 90S17 21 10-45l28-5c4 36 97 45 98 0-10-56-113-15-118-90-4-57 82-63 122-42 12 7 21 19 24 35" id="D"/><g id="c"><use transform="matrix(0.12345679012345653,0,0,0.12345679012345653,0,0)" xlink:href="#A"/><use transform="matrix(0.12345679012345653,0,0,0.12345679012345653,31.975308641975243,0)" xlink:href="#B"/><use transform="matrix(0.12345679012345653,0,0,0.12345679012345653,56.66666666666655,0)" xlink:href="#w"/><use transform="matrix(0.12345679012345653,0,0,0.12345679012345653,69.0123456790122,0)" xlink:href="#B"/><use transform="matrix(0.12345679012345653,0,0,0.12345679012345653,93.70370370370351,0)" xlink:href="#C"/><use transform="matrix(0.12345679012345653,0,0,0.12345679012345653,118.39506172839482,0)" xlink:href="#B"/><use transform="matrix(0.12345679012345653,0,0,0.12345679012345653,143.08641975308612,0)" xlink:href="#D"/><use transform="matrix(0.12345679012345653,0,0,0.12345679012345653,165.3086419753083,0)" xlink:href="#u"/></g><path fill="#333" d="M24-248c93 1 206-16 204 79-1 75-69 88-152 82V0H24v-248zm52 121c47 0 100 7 100-41 0-47-54-39-100-39v80" id="E"/><path fill="#333" d="M140-251c80 0 125 45 125 126S219 4 139 4C58 4 15-44 15-125s44-126 125-126zm-1 214c52 0 73-35 73-88 0-50-21-86-72-86-52 0-73 35-73 86s22 88 72 88" id="F"/><path fill="#333" d="M169-182c-1-43-94-46-97-3 18 66 151 10 154 114 3 95-165 93-204 36-6-8-10-19-12-30l50-8c3 46 112 56 116 5-17-69-150-10-154-114-4-87 153-88 188-35 5 8 8 18 10 28" id="G"/><path fill="#333" d="M136-208V0H84v-208H4v-40h212v40h-80" id="H"/><g id="d"><use transform="matrix(0.07407407407407407,0,0,0.07407407407407407,0,0)" xlink:href="#E"/><use transform="matrix(0.07407407407407407,0,0,0.07407407407407407,17.77777777777778,0)" xlink:href="#F"/><use transform="matrix(0.07407407407407407,0,0,0.07407407407407407,38.51851851851852,0)" xlink:href="#G"/><use transform="matrix(0.07407407407407407,0,0,0.07407407407407407,56.296296296296305,0)" xlink:href="#H"/></g><path fill="#333" d="M4 7l51-268h42L46 7H4" id="I"/><path fill="#333" d="M133-34C117-15 103 5 69 4 32 3 11-16 11-54c-1-60 55-63 116-61 1-26-3-47-28-47-18 1-26 9-28 27l-52-2c7-38 36-58 82-57s74 22 75 68l1 82c-1 14 12 18 25 15v27c-30 8-71 5-69-32zm-48 3c29 0 43-24 42-57-32 0-66-3-65 30 0 17 8 27 23 27" id="J"/><path fill="#333" d="M85 4C-2 5 27-109 22-190h50c7 57-23 150 33 157 60-5 35-97 40-157h50l1 190h-47c-2-12 1-28-3-38-12 25-28 42-61 42" id="K"/><path fill="#333" d="M115-3C79 11 28 4 28-45v-112H4v-33h27l15-45h31v45h36v33H77v99c-1 23 16 31 38 25v30" id="L"/><path fill="#333" d="M114-157C55-157 80-60 75 0H25v-261h50l-1 109c12-26 28-41 61-42 86-1 58 113 63 194h-50c-7-57 23-157-34-157" id="M"/><path fill="#333" d="M137-138c1-29-70-34-71-4 15 46 118 7 119 86 1 83-164 76-172 9l43-7c4 19 20 25 44 25 33 8 57-30 24-41C81-84 22-81 20-136c-2-80 154-74 161-7" id="N"/><path fill="#333" d="M25-224v-37h50v37H25zM25 0v-190h50V0H25" id="O"/><path fill="#333" d="M195-6C206 82 75 100 31 46c-4-6-6-13-8-21l49-6c3 16 16 24 34 25 40 0 42-37 40-79-11 22-30 35-61 35-53 0-70-43-70-97 0-56 18-96 73-97 30 0 46 14 59 34l2-30h47zm-90-29c32 0 41-27 41-63 0-35-9-62-40-62-32 0-39 29-40 63 0 36 9 62 39 62" id="P"/><path fill="#333" d="M135-194c87-1 58 113 63 194h-50c-7-57 23-157-34-157-59 0-34 97-39 157H25l-1-190h47c2 12-1 28 3 38 12-26 28-41 61-42" id="Q"/><path fill="#333" d="M135-194c53 0 70 44 70 98 0 56-19 98-73 100-31 1-45-17-59-34 3 33 2 69 2 105H25l-1-265h48c2 10 0 23 3 31 11-24 29-35 60-35zM114-30c33 0 39-31 40-66 0-38-9-64-40-64-56 0-55 130 0 130" id="R"/><g id="e"><use transform="matrix(0.061728395061728385,0,0,0.061728395061728385,0,0)" xlink:href="#I"/><use transform="matrix(0.061728395061728385,0,0,0.061728395061728385,6.1728395061728385,0)" xlink:href="#J"/><use transform="matrix(0.061728395061728385,0,0,0.061728395061728385,18.518518518518515,0)" xlink:href="#K"/><use transform="matrix(0.061728395061728385,0,0,0.061728395061728385,32.03703703703703,0)" xlink:href="#L"/><use transform="matrix(0.061728395061728385,0,0,0.061728395061728385,39.38271604938271,0)" xlink:href="#M"/><use transform="matrix(0.061728395061728385,0,0,0.061728395061728385,52.90123456790123,0)" xlink:href="#I"/><use transform="matrix(0.061728395061728385,0,0,0.061728395061728385,59.07407407407406,0)" xlink:href="#N"/><use transform="matrix(0.061728395061728385,0,0,0.061728395061728385,71.41975308641975,0)" xlink:href="#O"/><use transform="matrix(0.061728395061728385,0,0,0.061728395061728385,77.59259259259258,0)" xlink:href="#P"/><use transform="matrix(0.061728395061728385,0,0,0.061728395061728385,91.1111111111111,0)" xlink:href="#Q"/><use transform="matrix(0.061728395061728385,0,0,0.061728395061728385,104.62962962962962,0)" xlink:href="#K"/><use transform="matrix(0.061728395061728385,0,0,0.061728395061728385,118.14814814814814,0)" xlink:href="#R"/></g><path fill="#333" d="M24 0v-248h52V0H24" id="S"/><path fill="#333" d="M175 0L67-191c6 58 2 128 3 191H24v-248h59L193-55c-6-58-2-129-3-193h46V0h-61" id="T"/><path fill="#333" d="M24 0v-248h195v40H76v63h132v40H76v65h150V0H24" id="U"/><path fill="#333" d="M240-174c0 40-23 61-54 70L253 0h-59l-57-94H76V0H24v-248c93 4 217-23 216 74zM76-134c48-2 112 12 112-38 0-48-66-32-112-35v73" id="V"/><g id="f"><use transform="matrix(0.06172839506172839,0,0,0.06172839506172839,0,0)" xlink:href="#S"/><use transform="matrix(0.06172839506172839,0,0,0.06172839506172839,6.172839506172839,0)" xlink:href="#T"/><use transform="matrix(0.06172839506172839,0,0,0.06172839506172839,22.160493827160494,0)" xlink:href="#G"/><use transform="matrix(0.06172839506172839,0,0,0.06172839506172839,36.9753086419753,0)" xlink:href="#U"/><use transform="matrix(0.06172839506172839,0,0,0.06172839506172839,51.79012345679011,0)" xlink:href="#V"/><use transform="matrix(0.06172839506172839,0,0,0.06172839506172839,67.77777777777777,0)" xlink:href="#H"/></g><path fill="#333" d="M232-93c-1 65-40 97-104 97C67 4 28-28 28-90v-158h33c8 89-33 224 67 224 102 0 64-133 71-224h33v155" id="W"/><g id="g"><use transform="matrix(0.06172839506172839,0,0,0.06172839506172839,0,0)" xlink:href="#W"/><use transform="matrix(0.06172839506172839,0,0,0.06172839506172839,15.987654320987653,0)" xlink:href="#D"/><use transform="matrix(0.06172839506172839,0,0,0.06172839506172839,27.098765432098766,0)" xlink:href="#u"/><use transform="matrix(0.06172839506172839,0,0,0.06172839506172839,39.44444444444444,0)" xlink:href="#y"/></g><path fill="#333" d="M210-169c-67 3-38 105-44 169h-31v-121c0-29-5-50-35-48C34-165 62-65 56 0H25l-1-190h30c1 10-1 24 2 32 10-44 99-50 107 0 11-21 27-35 58-36 85-2 47 119 55 194h-31v-121c0-29-5-49-35-48" id="X"/><g id="h"><use transform="matrix(0.06172839506172839,0,0,0.06172839506172839,0,0)" xlink:href="#W"/><use transform="matrix(0.06172839506172839,0,0,0.06172839506172839,15.987654320987653,0)" xlink:href="#D"/><use transform="matrix(0.06172839506172839,0,0,0.06172839506172839,27.098765432098766,0)" xlink:href="#u"/><use transform="matrix(0.06172839506172839,0,0,0.06172839506172839,39.44444444444444,0)" xlink:href="#y"/><use transform="matrix(0.06172839506172839,0,0,0.06172839506172839,46.79012345679012,0)" xlink:href="#v"/><use transform="matrix(0.06172839506172839,0,0,0.06172839506172839,59.1358024691358,0)" xlink:href="#B"/><use transform="matrix(0.06172839506172839,0,0,0.06172839506172839,71.48148148148148,0)" xlink:href="#X"/><use transform="matrix(0.06172839506172839,0,0,0.06172839506172839,89.93827160493827,0)" xlink:href="#u"/></g><path fill="#333" d="M30 0v-248h187v28H63v79h144v27H63v87h162V0H30" id="Y"/><g id="i"><use transform="matrix(0.06172839506172839,0,0,0.06172839506172839,0,0)" xlink:href="#Y"/><use transform="matrix(0.06172839506172839,0,0,0.06172839506172839,14.814814814814813,0)" xlink:href="#X"/><use transform="matrix(0.06172839506172839,0,0,0.06172839506172839,33.2716049382716,0)" xlink:href="#B"/><use transform="matrix(0.06172839506172839,0,0,0.06172839506172839,45.61728395061728,0)" xlink:href="#t"/><use transform="matrix(0.06172839506172839,0,0,0.06172839506172839,50.49382716049382,0)" xlink:href="#s"/></g><path fill="#333" d="M96-169c-40 0-48 33-48 73s9 75 48 75c24 0 41-14 43-38l32 2c-6 37-31 61-74 61-59 0-76-41-82-99-10-93 101-131 147-64 4 7 5 14 7 22l-32 3c-4-21-16-35-41-35" id="Z"/><path fill="#333" d="M100-194c62-1 85 37 85 99 1 63-27 99-86 99S16-35 15-95c0-66 28-99 85-99zM99-20c44 1 53-31 53-75 0-43-8-75-51-75s-53 32-53 75 10 74 51 75" id="aa"/><path fill="#333" d="M85-194c31 0 48 13 60 33l-1-100h32l1 261h-30c-2-10 0-23-3-31C134-8 116 4 85 4 32 4 16-35 15-94c0-66 23-100 70-100zm9 24c-40 0-46 34-46 75 0 40 6 74 45 74 42 0 51-32 51-76 0-42-9-74-50-73" id="ab"/><path fill="#333" d="M87 75C49 33 22-17 22-94c0-76 28-126 65-167h31c-38 41-64 92-64 168S80 34 118 75H87" id="ac"/><path fill="#333" d="M30-248c87 1 191-15 191 75 0 78-77 80-158 76V0H30v-248zm33 125c57 0 124 11 124-50 0-59-68-47-124-48v98" id="ad"/><path fill="#333" d="M206 0h-36l-40-164L89 0H53L-1-190h32L70-26l43-164h34l41 164 42-164h31" id="ae"/><path fill="#333" d="M33-261c38 41 65 92 65 168S71 34 33 75H2C39 34 66-17 66-93S39-220 2-261h31" id="af"/><g id="j"><use transform="matrix(0.06172839506172839,0,0,0.06172839506172839,0,0)" xlink:href="#u"/><use transform="matrix(0.06172839506172839,0,0,0.06172839506172839,12.345679012345679,0)" xlink:href="#v"/><use transform="matrix(0.06172839506172839,0,0,0.06172839506172839,24.691358024691358,0)" xlink:href="#Z"/><use transform="matrix(0.06172839506172839,0,0,0.06172839506172839,35.80246913580247,0)" xlink:href="#aa"/><use transform="matrix(0.06172839506172839,0,0,0.06172839506172839,48.148148148148145,0)" xlink:href="#ab"/><use transform="matrix(0.06172839506172839,0,0,0.06172839506172839,60.49382716049382,0)" xlink:href="#u"/><use transform="matrix(0.06172839506172839,0,0,0.06172839506172839,72.8395061728395,0)" xlink:href="#ac"/><use transform="matrix(0.06172839506172839,0,0,0.06172839506172839,80.18518518518519,0)" xlink:href="#ad"/><use transform="matrix(0.06172839506172839,0,0,0.06172839506172839,95,0)" xlink:href="#B"/><use transform="matrix(0.06172839506172839,0,0,0.06172839506172839,107.34567901234568,0)" xlink:href="#D"/><use transform="matrix(0.06172839506172839,0,0,0.06172839506172839,118.4567901234568,0)" xlink:href="#D"/><use transform="matrix(0.06172839506172839,0,0,0.06172839506172839,129.5679012345679,0)" xlink:href="#ae"/><use transform="matrix(0.06172839506172839,0,0,0.06172839506172839,145.55555555555554,0)" xlink:href="#aa"/><use transform="matrix(0.06172839506172839,0,0,0.06172839506172839,157.9012345679012,0)" xlink:href="#y"/><use transform="matrix(0.06172839506172839,0,0,0.06172839506172839,165.24691358024688,0)" xlink:href="#ab"/><use transform="matrix(0.06172839506172839,0,0,0.06172839506172839,177.59259259259255,0)" xlink:href="#af"/></g><path fill="#333" d="M24-248c120-7 223 5 221 122C244-46 201 0 124 0H24v-248zM76-40c74 7 117-18 117-86 0-67-45-88-117-82v168" id="ag"/><path fill="#333" d="M110-194c64 0 96 36 96 99 0 64-35 99-97 99-61 0-95-36-95-99 0-62 34-99 96-99zm-1 164c35 0 45-28 45-65 0-40-10-65-43-65-34 0-45 26-45 65 0 36 10 65 43 65" id="ah"/><path fill="#333" d="M185-48c-13 30-37 53-82 52C43 2 14-33 14-96s30-98 90-98c62 0 83 45 84 108H66c0 31 8 55 39 56 18 0 30-7 34-22zm-45-69c5-46-57-63-70-21-2 6-4 13-4 21h74" id="ai"/><g id="k"><use transform="matrix(0.06172839506172839,0,0,0.06172839506172839,0,0)" xlink:href="#ag"/><use transform="matrix(0.06172839506172839,0,0,0.06172839506172839,15.987654320987653,0)" xlink:href="#ah"/><use transform="matrix(0.06172839506172839,0,0,0.06172839506172839,29.50617283950617,0)" xlink:href="#Q"/><use transform="matrix(0.06172839506172839,0,0,0.06172839506172839,43.02469135802469,0)" xlink:href="#ai"/></g><path fill="#333" d="M182-182c0 78-84 86-111 141h115V0H12c-6-101 99-100 120-180 1-22-12-31-33-32-23 0-32 14-35 34l-49-3c5-45 32-70 84-70 51 0 83 22 83 69" id="aj"/><path fill="#333" d="M101-251c68 0 84 54 84 127C185-50 166 4 99 4S15-52 14-124c-1-75 17-127 87-127zm-1 216c37-5 36-46 36-89s4-89-36-89c-39 0-36 45-36 89 0 43-3 85 36 89" id="ak"/><g id="l"><use transform="matrix(0.07407407407407407,0,0,0.07407407407407407,0,0)" xlink:href="#aj"/><use transform="matrix(0.07407407407407407,0,0,0.07407407407407407,14.814814814814813,0)" xlink:href="#ak"/><use transform="matrix(0.07407407407407407,0,0,0.07407407407407407,29.629629629629626,0)" xlink:href="#ak"/></g><path fill="#333" d="M195 0l-88-114-31 24V0H24v-248h52v113l112-113h60L142-143 257 0h-62" id="al"/><g id="m"><use transform="matrix(0.07407407407407407,0,0,0.07407407407407407,0,0)" xlink:href="#F"/><use transform="matrix(0.07407407407407407,0,0,0.07407407407407407,20.74074074074074,0)" xlink:href="#al"/></g><path fill="#333" d="M27 0v-27h64v-190l-56 39v-29l58-41h29v221h61V0H27" id="am"/><use transform="matrix(0.08641975308641969,0,0,0.08641975308641969,0,0)" xlink:href="#am" id="n"/><path fill="#333" d="M101-251c82-7 93 87 43 132L82-64C71-53 59-42 53-27h129V0H18c2-99 128-94 128-182 0-28-16-43-45-43s-46 15-49 41l-32-3c6-41 34-60 81-64" id="an"/><use transform="matrix(0.08641975308641969,0,0,0.08641975308641969,0,0)" xlink:href="#an" id="o"/><path fill="#333" d="M126-127c33 6 58 20 58 59 0 88-139 92-164 29-3-8-5-16-6-25l32-3c6 27 21 44 54 44 32 0 52-15 52-46 0-38-36-46-79-43v-28c39 1 72-4 72-42 0-27-17-43-46-43-28 0-47 15-49 41l-32-3c6-42 35-63 81-64 48-1 79 21 79 65 0 36-21 52-52 59" id="ao"/><use transform="matrix(0.08641975308641969,0,0,0.08641975308641969,0,0)" xlink:href="#ao" id="p"/><path fill="#333" d="M155-56V0h-30v-56H8v-25l114-167h33v167h35v25h-35zm-30-156c-27 46-58 90-88 131h88v-131" id="ap"/><use transform="matrix(0.08641975308641969,0,0,0.08641975308641969,0,0)" xlink:href="#ap" id="q"/></defs></g></svg>